# xmcd
#
# Track frame offsets:
# 150
# 15246
# 29457
# 46602
# 55794
# 72770
# 83694
# 100879
# 114115
# 132667
# 145850
# 155535
# 167775
# 181728
#
# Disc length: 2583 seconds
#
#
# Revision: 0
# Processed by: cddbd v1.5.1PL2 Copyright (c) Steve Scherf et al.
# Submitted via: FreeRIP 2.944 
#
DISCID=a70a150e
DTITLE=Amaraí - Só moda boa
DYEAR=1900
DGENRE=Sertanejo
TTITLE0=O menino e o circo
TTITLE1=Murmura o mar
TTITLE2=Bahia dos meus amores
TTITLE3=A mulher que mais amei
TTITLE4=De agora em diante
TTITLE5=A divina viola
TTITLE6=Quero ver aquele que não chora
TTITLE7=A volta do caminhoneiro
TTITLE8=Velho rialejo
TTITLE9=Nossas diferenças
TTITLE10=Morena dos olhos tristes
TTITLE11=Pela lei do coração
TTITLE12=Saudade de minha terra
TTITLE13=Amigo do peito
EXTD=
EXTT0=
EXTT1=
EXTT2=
EXTT3=
EXTT4=
EXTT5=
EXTT6=
EXTT7=
EXTT8=
EXTT9=
EXTT10=
EXTT11=
EXTT12=
EXTT13=
PLAYORDER=
